PathFileType	4	(X/Y/Z)	C:\Users\WrightLab\Desktop\Jo\P1_boxCal7.trc
DataRate	CameraRate	NumFrames	NumMarkers	Units	OrigDataRate	OrigDataStartFrame	OrigNumFrames
100.00	100.00	       8	19	mm	100.00	77	       609
Frame#	Time	Headset_Front			Headset_Back			Headset_Left			Headset_Right			Left_Shoulder			Right_Shoulder			Sternum			C7			Left Elbow			Right Elbow			Left Wrist			Right Wrist			Left ASIS			Right ASIS			S2			Left Knee			Right Knee			Left Ankle			Right Ankle			
		X1	Y1	Z1	X2	Y2	Z2	X3	Y3	Z3	X4	Y4	Z4	X5	Y5	Z5	X6	Y6	Z6	X7	Y7	Z7	X8	Y8	Z8	X9	Y9	Z9	X10	Y10	Z10	X11	Y11	Z11	X12	Y12	Z12	X13	Y13	Z13	X14	Y14	Z14	X15	Y15	Z15	X16	Y16	Z16	X17	Y17	Z17	X18	Y18	Z18	X19	Y19	Z19	

77	0.760	-517.20251	1346.95483	-1012.62335	-492.77670	1130.36487	-1132.82214				-604.18719	1387.27844	-1128.43640	-290.15808	1268.12817	-1250.33789	-655.94800	1241.66553	-1255.36084							-189.12758	955.44690	-1291.42749	-747.98932	986.29102	-1331.88306	-119.62162	771.19244	-1201.98755	-593.58368	847.68274	-1177.04321	-398.06158	855.26422	-1119.09583				-405.24826	874.95300	-1445.39587	-307.96265	465.77747	-1085.17224	-603.25739	409.66330	-1322.03687	-296.96393	101.60958	-1181.51868	-533.75720	45.32582	-1376.22290	
78	0.770	-519.16840	1346.65942	-1006.04413	-497.40732	1130.41858	-1125.31689				-606.58167	1386.31494	-1121.09351	-293.03265	1267.33960	-1242.09790	-657.89984	1241.29749	-1249.81409							-191.32776	955.41315	-1285.41748	-751.96088	984.70068	-1321.68372	-121.31988	771.10370	-1196.91736	-595.99030	846.54730	-1171.60889	-400.66849	854.30292	-1112.60291				-406.52475	875.55963	-1439.87341	-314.66809	464.18329	-1079.05872	-603.60919	409.34711	-1319.76501	-304.62326	96.31388	-1159.05457	-534.12799	47.68396	-1374.44434	
79	0.780	-521.95660	1346.52173	-998.62897							-608.51587	1386.09631	-1113.93066	-296.22937	1267.81140	-1236.65015	-660.88550	1240.40845	-1242.28735							-193.35939	955.24463	-1278.66748	-754.72455	985.28998	-1315.91797	-122.49116	771.10303	-1192.36365				-403.70224	853.36462	-1106.58423				-407.78091	875.45831	-1433.05457	-320.79843	463.77975	-1073.11072	-603.99432	407.09717	-1319.10962	-313.56039	89.68751	-1134.87952	-534.03076	47.89448	-1374.00940	
80	0.790	-522.74719	1345.31140	-991.92737	-501.54102	1128.36230	-1111.51111				-611.21576	1386.50439	-1106.84583	-298.68002	1267.76367	-1230.44238	-663.61975	1239.81555	-1235.15808							-195.67621	954.99011	-1272.82068	-757.70734	984.24792	-1307.10535	-123.19310	771.98193	-1189.39917				-406.73965	852.64185	-1100.88184	-601.31360	844.91296	-1160.13428	-409.05585	875.37610	-1426.26099	-326.97290	463.08722	-1067.13635	-604.72406	406.67737	-1316.65588	-321.84781	85.48972	-1111.04468	-533.91925	48.08111	-1373.49451	
81	0.800	-524.31482	1344.98376	-985.18213	-506.56290	1127.87305	-1104.73218				-613.67053	1385.30127	-1099.48621	-301.00870	1266.89844	-1222.34839	-665.93488	1239.23206	-1229.03674							-197.74904	954.92041	-1266.63037				-125.22145	770.76141	-1182.05579				-408.90451	853.31488	-1089.24268	-604.71027	844.73865	-1152.11548	-410.41684	876.02789	-1420.39355	-332.42712	461.18848	-1061.17065	-604.66852	407.82547	-1317.65540	-330.26401	81.83469	-1087.19360				
82	0.810	-526.78174	1344.50940	-977.55707	-506.94525	1126.80896	-1097.10010				-615.51581	1385.58118	-1092.05835	-303.25540	1266.03577	-1214.22705	-668.20813	1238.11060	-1220.99902							-199.88864	954.68488	-1260.30334				-126.11892	770.95746	-1178.28455				-413.20862	851.33759	-1084.57898	-607.28931	843.17688	-1148.82483	-411.75641	875.62720	-1413.23706	-337.44659	459.48166	-1055.42249				-338.69562	79.41953	-1064.26929				
83	0.820	-529.88141	1345.77136	-970.38000	-510.15143	1126.48621	-1089.76099				-617.96680	1384.22131	-1083.89929	-305.46863	1265.18555	-1206.06909	-670.40991	1237.71765	-1215.05334							-201.96196	953.99982	-1253.20081				-127.08225	770.57898	-1173.54114				-416.40817	849.67145	-1076.89832	-610.55969	842.57562	-1143.44312	-412.94949	874.75958	-1404.34082	-342.09464	457.35815	-1050.54028	-606.27600	407.68329	-1309.51318	-347.28943	78.18910	-1041.55835				
84	0.830	-530.41235	1344.72595	-962.72302							-619.70813	1383.90491	-1076.92578	-307.63498	1264.32922	-1197.93884	-672.99542	1237.71045	-1208.95068							-204.04091	953.51794	-1246.21313				-128.50804	769.70758	-1167.13586				-419.76361	848.84998	-1069.77209	-612.41278	840.01459	-1139.34229	-414.24066	874.70966	-1397.05493	-346.63223	455.15109	-1044.78955	-605.97473	407.19601	-1305.79163	-357.21536	77.57745	-1018.76361				
